<svg width="48" height="48" viewBox="0 0 48 48" fill="none" xmlns="http://www.w3.org/2000/svg">
<mask id="mask0_2790_171" style="mask-type:alpha" maskUnits="userSpaceOnUse" x="0" y="0" width="48" height="48">
<rect width="48" height="48" fill="#D9D9D9"/>
</mask>
<g mask="url(#mask0_2790_171)">
<path d="M23.9873 20.4959C21.8278 20.4959 20.0609 19.8171 18.6867 18.4594C17.3124 17.1017 16.6253 15.3663 16.6253 13.253C16.6253 11.1236 17.3123 9.38237 18.6863 8.02944C20.0604 6.67648 21.8231 6 23.9746 6C26.1426 6 27.918 6.67648 29.3007 8.02944C30.6834 9.38237 31.3747 11.1194 31.3747 13.2405C31.3747 15.3617 30.6834 17.1012 29.3007 18.4591C27.918 19.817 26.1469 20.4959 23.9873 20.4959ZM23.9831 16.9977C25.1014 16.9977 26.0165 16.6447 26.7284 15.9388C27.4402 15.2329 27.7961 14.3374 27.7961 13.2521C27.7961 12.1511 27.4416 11.2502 26.7326 10.5494C26.0236 9.84864 25.1142 9.49823 24.0043 9.49823C22.8944 9.49823 21.9793 9.84864 21.259 10.5494C20.5387 11.2502 20.1786 12.147 20.1786 13.2396C20.1786 14.3324 20.5371 15.2319 21.2541 15.9382C21.9711 16.6445 22.8808 16.9977 23.9831 16.9977ZM23.9873 23.5871C26.2403 23.5871 28.3345 23.8642 30.2697 24.4185C32.2049 24.9728 33.9566 25.5955 35.5248 26.2866C36.5891 26.7507 37.4343 27.4254 38.0606 28.3108C38.6869 29.1962 39 30.2565 39 31.4917V39.5018C39 40.4588 38.6483 41.2811 37.945 41.9687C37.2416 42.6562 36.4004 43 35.4214 43H20.2293C18.8586 43 17.6966 42.5301 16.7431 41.5903C15.7896 40.6505 15.3128 39.5051 15.3128 38.1541C15.3128 36.8031 15.7896 35.6595 16.7431 34.7235C17.6966 33.7874 18.8586 33.3194 20.2293 33.3194H25.3954L28.0925 27.477C27.3995 27.3464 26.7101 27.2527 26.0241 27.1957C25.3382 27.1388 24.6571 27.1103 23.9807 27.1103C21.8934 27.1103 20.0234 27.3365 18.3709 27.789C16.7183 28.2415 15.2557 28.7668 13.983 29.3649C13.585 29.5745 13.2472 29.8868 12.9697 30.3018C12.6921 30.7169 12.5533 31.1468 12.5533 31.5915V41.2509C12.5533 41.7427 12.3813 42.1572 12.0374 42.4943C11.6935 42.8314 11.2706 43 10.7688 43C10.267 43 9.84671 42.8315 9.50802 42.4944C9.16934 42.1572 9 41.7427 9 41.2509V31.4917C9 30.2565 9.31089 29.1971 9.93266 28.3136C10.5544 27.43 11.3786 26.7529 12.4051 26.2823C13.9301 25.6081 15.6785 24.9903 17.6502 24.429C19.6219 23.8677 21.7343 23.5871 23.9873 23.5871ZM20.2293 39.7764H22.1697L23.7533 36.5431H20.2293C19.8049 36.5431 19.4252 36.7085 19.09 37.0392C18.7548 37.3698 18.5872 37.7487 18.5872 38.1758C18.5872 38.6028 18.7548 38.9764 19.09 39.2963C19.4252 39.6164 19.8049 39.7764 20.2293 39.7764ZM26.0175 39.5018H35.4214V31.5915C35.4214 31.1468 35.2793 30.7186 34.9952 30.307C34.7112 29.8954 34.3598 29.5831 33.9412 29.3701C33.6296 29.2048 33.2543 29.0454 32.8153 28.8919C32.3762 28.7384 31.8785 28.5522 31.322 28.3333L26.0175 39.5018Z" fill="white"/>
</g>
</svg>
