<svg width="48" height="48" viewBox="0 0 48 48" fill="none" xmlns="http://www.w3.org/2000/svg">
<mask id="mask0_2790_99" style="mask-type:alpha" maskUnits="userSpaceOnUse" x="0" y="0" width="48" height="48">
<rect width="48" height="48" fill="#D9D9D9"/>
</mask>
<g mask="url(#mask0_2790_99)">
<path d="M11.9969 28C11.9969 28.7956 11.6809 29.5587 11.1183 30.1213C10.5557 30.6839 9.79259 31 8.99694 31C8.2013 31 7.43824 30.6839 6.87563 30.1213C6.31302 29.5587 5.99695 28.7956 5.99695 28C5.99695 27.2043 6.31302 26.4413 6.87563 25.8787C7.43824 25.3161 8.2013 25 8.99694 25C9.79259 25 10.5557 25.3161 11.1183 25.8787C11.6809 26.4413 11.9969 27.2043 11.9969 28ZM41.9969 28C41.9969 28.7956 41.6808 29.5587 41.1182 30.1213C40.5556 30.6839 39.7926 31 38.9969 31C38.2013 31 37.4382 30.6839 36.8756 30.1213C36.313 29.5587 35.9969 28.7956 35.9969 28C35.9969 27.2043 36.313 26.4413 36.8756 25.8787C37.4382 25.3161 38.2013 25 38.9969 25C39.7926 25 40.5556 25.3161 41.1182 25.8787C41.6808 26.4413 41.9969 27.2043 41.9969 28ZM17.9969 25C17.2013 25 16.4382 25.3161 15.8756 25.8787C15.313 26.4413 14.9969 27.2043 14.9969 28C14.9969 28.7956 15.313 29.5587 15.8756 30.1213C16.4382 30.6839 17.2013 31 17.9969 31H29.9969C30.7926 31 31.5556 30.6839 32.1182 30.1213C32.6808 29.5587 32.9969 28.7956 32.9969 28C32.9969 27.2043 32.6808 26.4413 32.1182 25.8787C31.5556 25.3161 30.7926 25 29.9969 25H17.9969ZM14.5829 13.828L11.7149 19.57C11.5977 19.812 11.5462 20.0805 11.5658 20.3487C11.5854 20.6169 11.6753 20.8751 11.8265 21.0975C11.9777 21.3199 12.1848 21.4984 12.427 21.6153C12.6691 21.7321 12.9378 21.7831 13.2059 21.763C15.9359 21.544 20.2559 21.253 23.9969 21.253C27.7379 21.253 32.0609 21.544 34.7879 21.763C35.056 21.7831 35.3247 21.7321 35.5669 21.6153C35.8091 21.4984 36.0162 21.3199 36.1673 21.0975C36.3185 20.8751 36.4084 20.6169 36.428 20.3487C36.4476 20.0805 36.3962 19.812 36.2789 19.57L33.4109 13.831C33.2866 13.5816 33.0953 13.3717 32.8585 13.225C32.6216 13.0782 32.3486 13.0003 32.0699 13H15.9239C15.6456 13 15.3728 13.0775 15.1359 13.2237C14.8991 13.3699 14.7076 13.5792 14.5829 13.828Z" fill="white"/>
<path d="M7.55699 11.545C8.1357 10.195 9.09808 9.04464 10.3247 8.23667C11.5513 7.42871 12.9882 6.9987 14.457 7H33.543C36.543 7 39.255 8.788 40.4369 11.545L42.8129 17.089C43.0379 17.614 43.4429 18.046 43.9529 18.301C45.4529 19.051 46.5179 20.446 46.8479 22.087L47.8529 27.124C47.9529 27.608 48.0019 28.098 47.9999 28.594V29.833C47.9999 32.275 46.8299 34.462 44.9999 35.824V41.5C44.9999 41.8978 44.8419 42.2793 44.5606 42.5606C44.2793 42.8419 43.8978 43 43.4999 43H37.5C37.1021 43 36.7206 42.8419 36.4393 42.5606C36.158 42.2793 36 41.8978 36 41.5V37.486C32.124 37.63 27.765 37.75 24 37.75C20.235 37.75 15.876 37.63 12 37.486V41.5C12 41.8978 11.842 42.2793 11.5606 42.5606C11.2793 42.8419 10.8978 43 10.5 43H4.49999C4.10217 43 3.72064 42.8419 3.43934 42.5606C3.15803 42.2793 3 41.8978 3 41.5V35.824C1.17 34.462 0 32.275 0 29.833V28.594C0.000503491 28.1003 0.0497422 27.6079 0.147 27.124L1.152 22.084C1.482 20.446 2.547 19.048 4.04399 18.301C4.55749 18.0464 4.96293 17.6165 5.18699 17.089L7.56299 11.545H7.55699ZM14.457 10C13.5759 10.0001 12.7142 10.2588 11.9787 10.7441C11.2433 11.2294 10.6666 11.9199 10.32 12.73L7.94399 18.271C7.44006 19.4502 6.53294 20.4115 5.38499 20.983C5.05437 21.1469 4.76598 21.3848 4.54225 21.6782C4.31852 21.9717 4.16547 22.3128 4.095 22.675L3.087 27.712C3.02804 28.0023 2.99789 28.2977 2.997 28.594V29.833C2.997 32.221 4.85699 34.177 7.22099 34.285C11.886 34.495 18.579 34.75 23.997 34.75C29.415 34.75 36.108 34.498 40.773 34.285C41.9148 34.2294 42.9911 33.7355 43.7779 32.9062C44.5647 32.0769 45.0014 30.9761 44.9969 29.833V28.594C44.9969 28.298 44.9669 28.004 44.9069 27.712L43.9019 22.672C43.831 22.3103 43.6778 21.9698 43.4541 21.6769C43.2304 21.384 42.9422 21.1466 42.6119 20.983C41.464 20.4115 40.5569 19.4502 40.053 18.271L37.677 12.727C37.3297 11.917 36.7523 11.2268 36.0163 10.742C35.2804 10.2572 34.4182 9.99922 33.537 10H14.457Z" fill="white"/>
</g>
</svg>
