<svg width="48" height="48" viewBox="0 0 48 48" fill="none" xmlns="http://www.w3.org/2000/svg">
<mask id="mask0_2790_91" style="mask-type:alpha" maskUnits="userSpaceOnUse" x="0" y="0" width="48" height="48">
<rect width="48" height="48" fill="#D9D9D9"/>
</mask>
<g mask="url(#mask0_2790_91)">
<path fill-rule="evenodd" clip-rule="evenodd" d="M14.7256 7.27857C12.6082 7.81601 11.1365 8.66107 9.47114 10.2953C8.26908 11.4752 7.85461 12.0353 7.25676 13.2885C6.85231 14.1365 6.43202 15.2628 6.32275 15.7914C6.072 17.0057 6.06726 19.8783 6.31438 20.7653C6.66638 22.0271 7.78614 22.3625 8.67881 21.4736L9.20218 20.9523L9.09492 19.0664C8.92611 16.0954 9.64797 14.1481 11.6094 12.2847C13.4057 10.5783 15.9518 9.67264 18.2332 9.92893C20.5132 10.1852 22.6873 11.3258 23.8249 12.8622C25.1798 14.6926 25.2339 14.7396 25.9819 14.7396C26.58 14.7396 26.7633 14.6387 27.1949 14.0724C29.0671 11.6169 30.9084 10.3867 33.3036 9.99133C36.5254 9.45969 40.1636 11.2273 41.8344 14.1357C42.4346 15.1807 42.8001 15.4651 43.5429 15.4651C44.1759 15.4651 44.9123 14.7113 44.9123 14.0635C44.9123 12.7503 42.2884 9.64307 40.1594 8.43507C38.354 7.41062 36.8735 7.04259 34.5324 7.03643C32.8141 7.03189 32.2095 7.1068 31.1635 7.45397C29.4954 8.00773 28.2081 8.75121 26.9762 9.8727L25.9756 10.7838L25.1501 9.9955C24.0394 8.93496 22.3193 7.9154 20.8774 7.46304C19.1667 6.92651 16.4352 6.84452 14.7256 7.27857ZM24.7305 18.866C24.5255 19.0407 23.6898 20.3261 22.8734 21.7228C22.0571 23.1194 21.2625 24.4593 21.1079 24.7003C20.8317 25.1308 20.8106 25.0998 19.9292 22.9772C19.4355 21.7884 18.8637 20.6731 18.6583 20.4984C18.1753 20.088 17.1419 20.0892 16.7318 20.501C16.5564 20.6769 15.8841 21.534 15.2375 22.4055L14.062 23.9901H9.02499C4.20507 23.9901 3.96743 24.0062 3.50834 24.3661C2.83055 24.897 2.83055 25.9853 3.50834 26.5162C3.9707 26.8786 4.19323 26.892 9.65434 26.8864C13.8285 26.8822 15.3932 26.8225 15.5964 26.6596C15.7483 26.5381 16.1522 26.0714 16.4938 25.6225C16.8356 25.1736 17.171 24.7404 17.239 24.6599C17.3071 24.5792 17.8361 25.6265 18.4146 26.9869C19.3346 29.1504 19.5402 29.4956 20.0546 29.7399C21.0988 30.2358 21.4679 29.8897 23.4438 26.561C24.41 24.9329 25.2654 23.5865 25.3444 23.5689C25.4236 23.5511 26.1686 25.0809 26.9997 26.9685C27.831 28.856 28.6162 30.4689 28.7446 30.5525C29.2449 30.8779 29.8769 30.9308 30.3151 30.6838C30.5635 30.5438 31.2657 29.6347 31.8757 28.6639L32.9845 26.8985L34.4079 26.8954C36.0468 26.8916 36.3979 26.7543 36.7148 25.9922C36.983 25.3472 36.7129 24.4602 36.1584 24.1645C35.7285 23.9355 31.8733 23.9387 31.4421 24.1685C31.258 24.2667 30.845 24.7716 30.5243 25.2907C30.0957 25.9847 29.9041 26.1654 29.8001 25.9738C29.7225 25.8305 29.0271 24.244 28.2548 22.4483C27.4825 20.6526 26.685 19.0407 26.4829 18.866C26.2808 18.6913 25.8876 18.5486 25.6093 18.5486C25.3311 18.5486 24.9356 18.6913 24.7305 18.866ZM42.7761 21.7511C42.6528 21.8008 42.0617 22.835 41.4626 24.0494C40.8634 25.2637 39.8213 26.9919 39.1467 27.8898C36.1559 31.8706 30.6607 36.3638 27.0491 37.7818C25.8792 38.2411 25.4509 38.1557 23.1524 37.0046C20.4134 35.633 17.025 33.0721 14.7288 30.6379C13.7719 29.6234 13.4967 29.4324 12.9989 29.4373C12.2877 29.4442 11.848 29.7462 11.599 30.3985C11.3064 31.1655 11.6313 31.6963 13.5508 33.5868C17.367 37.3451 22.5997 40.5789 25.5074 40.976C27.1745 41.2036 30.2437 39.8035 33.7386 37.2212C38.2783 33.8671 41.8601 29.8429 43.9006 25.8039C45.0365 23.5555 45.1773 23.0434 44.8384 22.3906C44.6862 22.0973 44.429 21.8068 44.2668 21.7447C43.9275 21.615 43.105 21.6185 42.7761 21.7511Z" fill="white"/>
</g>
</svg>
